<svg version="1.1" id="Icon_Set" xmlns="http://www.w3.org/2000/svg" x="0" y="0" viewBox="0 0 512 512" style="enable-background:new 0 0 512 512" xml:space="preserve"><style>.st2{fill:#4c4372}.st4{fill:#a4cff2}</style><g id="On_Call"><circle cx="256" cy="256" r="207" style="fill:#f0c48a"/><path style="fill:#fd919e" d="M371.15 183.462h-42.612V140.85h-44.5v42.612h-42.613v44.5h42.613v42.613h44.5v-42.613h42.612z"/><path class="st2" d="M328.538 276.574h-44.5a6 6 0 0 1-6-6v-36.612h-36.612a6 6 0 0 1-6-6v-44.5a6 6 0 0 1 6-6h36.612V140.85a6 6 0 0 1 6-6h44.5a6 6 0 0 1 6 6v36.612h36.612a6 6 0 0 1 6 6v44.5a6 6 0 0 1-6 6h-36.612v36.612a6 6 0 0 1-6 6zm-38.5-12h32.5v-36.612a6 6 0 0 1 6-6h36.612v-32.5h-36.612a6 6 0 0 1-6-6V146.85h-32.5v36.612a6 6 0 0 1-6 6h-36.612v32.5h36.612a6 6 0 0 1 6 6v36.612z"/><g><path d="M294.993 312.484c8.335-8.335 21.848-8.335 30.182 0l39.73 39.73c9.279 9.279 8.047 24.635-2.552 32.372-63.604 46.425-145.1 29.279-204.659-30.28-59.558-59.558-76.704-141.054-30.279-204.658 7.737-10.599 23.093-11.831 32.372-2.552l39.73 39.73c8.335 8.335 8.335 21.848 0 30.182l-19.303 19.304a12.721 12.721 0 0 0-3.324 12.143c10.855 42.534 44.123 75.802 86.658 86.658a12.724 12.724 0 0 0 12.143-3.325l19.302-19.304z" style="fill:#d3e6f8"/><path class="st4" d="M362.352 384.585c10.599-7.736 11.831-23.093 2.552-32.372l-39.729-39.729c-8.335-8.334-21.848-8.334-30.182 0l-11.422 11.423 67.895 67.896a146.086 146.086 0 0 0 10.886-7.218zM188.094 228.43l11.422-11.423c8.335-8.334 8.335-21.848 0-30.183l-39.729-39.729c-9.279-9.278-24.635-8.047-32.372 2.553a145.57 145.57 0 0 0-7.217 10.887l67.896 67.895z"/><path class="st2" d="M351.468 397.802a5.991 5.991 0 0 1-4.244-1.758l-67.896-67.896a5.998 5.998 0 0 1-.001-8.484l11.422-11.423c10.661-10.659 28.007-10.66 38.668-.001l39.729 39.73a27.292 27.292 0 0 1 7.921 21.435 27.387 27.387 0 0 1-11.178 20.026 152.665 152.665 0 0 1-11.334 7.513 5.973 5.973 0 0 1-3.087.858zm10.885-13.217h.01-.01zm-70.297-60.679 60.282 60.282a139.526 139.526 0 0 0 6.478-4.45 15.407 15.407 0 0 0 6.288-11.261 15.306 15.306 0 0 0-4.441-12.022l-39.729-39.729c-5.983-5.981-15.717-5.979-21.698.001l-7.18 7.179zM188.094 234.43a5.996 5.996 0 0 1-4.242-1.758l-67.896-67.896a5.998 5.998 0 0 1-.9-7.332 151.993 151.993 0 0 1 7.514-11.335 27.389 27.389 0 0 1 20.023-11.178 27.273 27.273 0 0 1 21.436 7.92l39.729 39.73c5.165 5.164 8.009 12.03 8.009 19.334s-2.844 14.17-8.009 19.334l-11.421 11.422a5.995 5.995 0 0 1-4.243 1.759zm-60.282-74.768 60.282 60.282 7.179-7.18a15.243 15.243 0 0 0 4.494-10.849c0-4.099-1.596-7.951-4.493-10.85l-39.729-39.729a15.31 15.31 0 0 0-12.022-4.44 15.405 15.405 0 0 0-11.26 6.288 137.104 137.104 0 0 0-4.451 6.478z"/><g><path class="st2" d="M282.106 417.162c-8.101 0-16.304-.682-24.582-2.054-37.259-6.175-73.247-25.733-104.073-56.561-30.827-30.826-50.385-66.814-56.56-104.072-6.467-39.02 2.412-76.491 25.677-108.365a27.388 27.388 0 0 1 20.025-11.178 27.278 27.278 0 0 1 21.436 7.921l39.729 39.729c10.661 10.66 10.661 28.007 0 38.667l-19.302 19.304a6.75 6.75 0 0 0-1.754 6.417 114.03 114.03 0 0 0 82.327 82.328 6.752 6.752 0 0 0 6.418-1.754l19.303-19.303c5.164-5.165 12.03-8.009 19.334-8.009s14.17 2.844 19.334 8.009l39.729 39.729a27.287 27.287 0 0 1 7.921 21.435 27.385 27.385 0 0 1-11.178 20.025c-25.112 18.331-53.703 27.73-83.784 27.732zM144.714 146.85a15.405 15.405 0 0 0-12.452 6.335c-21.322 29.213-29.46 63.56-23.531 99.328 5.763 34.773 24.161 68.506 53.205 97.551 29.046 29.045 62.778 47.443 97.551 53.207 35.771 5.925 70.116-2.208 99.329-23.532a15.405 15.405 0 0 0 6.288-11.261 15.301 15.301 0 0 0-4.441-12.021l-39.729-39.73a15.246 15.246 0 0 0-10.849-4.493 15.248 15.248 0 0 0-10.85 4.493l-19.303 19.303c-4.646 4.647-11.495 6.525-17.869 4.896a126.023 126.023 0 0 1-90.987-90.988c-1.627-6.375.248-13.222 4.896-17.868l19.302-19.304c5.982-5.982 5.982-15.716.001-21.698l-39.729-39.729a15.311 15.311 0 0 0-10.832-4.489z"/></g></g></g></svg>